<svg height="15.451003mm" viewBox="0 0 15.526505 15.451003" width="15.526505mm" xmlns="http://www.w3.org/2000/svg" xmlns:xlink="http://www.w3.org/1999/xlink"><linearGradient id="a" gradientUnits="userSpaceOnUse" x1="27.948479" x2="43.898403" y1="37.901218" y2="37.901218"><stop offset="0" stop-color="#9cb469"/><stop offset="1" stop-color="#1ac600"/></linearGradient><path d="m29.293752 30.183638c-.568465.385734-1.217366.806534-1.212961 1.58038.000883.154365.05506.303786.08258.45568 1.41803 2.922742 3.138959 3.961874 5.870587 4.470893 1.576052.126013 3.15003.270544 4.713485.508355.109268.01831.553083.06553.679367.16962.05682.04684.146899.252123.09584.199053-.861844-.895864-1.66504-1.847343-2.535418-2.734921-.03553-.03623.02731.107795.0028.152229-.06153.111432-.16495.193915-.247428.290871-1.15483.985669-2.560462 1.606498-3.915334 2.262695-1.062162.479052-2.103883 1.005455-2.872598 1.898711-.348812.540789-.428163 1.441071.03849 1.957886.98857 1.094849 2.035863 2.135207 3.053796 3.202809.262842.08561.519177.19463.788501.256915 2.069285.478357 4.243688.434832 6.351709.532262 1.141684.05862 2.281562.145773 3.420107.247566 0 0-2.387211-3.069538-2.387211-3.069538-1.106967-.03059-2.2138-.06597-3.320364-.10897-1.967117-.07475-4.444825-.04568-6.31344-.697232-.256229-.08939-.4866-.240399-.7299-.360604.714635.829396 1.419123 1.667645 2.143905 2.488186.09623.108953-.179156-.229525-.25717-.352177-.242324-.380979-.306214-.830967-.09994-1.241116.688084-.882197 1.6826-1.393186 2.678697-1.86444 1.40142-.679886 2.844227-1.320428 4.075881-2.290645.252629-.244257.676045-.612163.592834-.729287-1.643114-2.312793-1.687185-3.106093-3.606833-3.293731-1.553204-.167582-3.113541-.268862-4.660793-.487131-.703821-.161818-1.393001-.324841-2.031833-.677713-.177915-.09828-.634392-.495917-.508712-.33618.599157.761543 3.16307 3.593665 1.931006 2.172933-.05744-.116512-.134324-.225323-.172342-.349544-.204105-.666915.508186-1.0181.977275-1.296768z" fill="url(#a)" transform="translate(-28.080769 -30.183639)"/></svg>